<mxfile host="app.diagrams.net" modified="2023-11-08T19:18:22.114Z" agent="Mozilla/5.0 (Windows NT 10.0; Win64; x64) AppleWebKit/537.36 (KHTML, like Gecko) Chrome/118.0.0.0 Safari/537.36" etag="zEWA45D1Dl34r9wAa5Rh" version="22.0.8" type="device">
  <diagram name="Page-1" id="iaLQ3EtYO2bBijJOUPJE">
    <mxGraphModel dx="1434" dy="746" grid="1" gridSize="10" guides="1" tooltips="1" connect="1" arrows="1" fold="1" page="1" pageScale="1" pageWidth="850" pageHeight="1100" math="0" shadow="0">
      <root>
        <mxCell id="0" />
        <mxCell id="1" parent="0" />
        <mxCell id="EufZwtRnVpdwOE_JQvTh-20" value="" style="rounded=0;whiteSpace=wrap;html=1;dashed=1;dashPattern=8 8;" vertex="1" parent="1">
          <mxGeometry x="180" y="50" width="640" height="440" as="geometry" />
        </mxCell>
        <mxCell id="EufZwtRnVpdwOE_JQvTh-21" value="" style="rounded=0;whiteSpace=wrap;html=1;dashed=1;dashPattern=8 8;" vertex="1" parent="1">
          <mxGeometry x="502" y="70" width="298" height="350" as="geometry" />
        </mxCell>
        <mxCell id="EufZwtRnVpdwOE_JQvTh-2" value="" style="sketch=0;points=[[0,0,0],[0.25,0,0],[0.5,0,0],[0.75,0,0],[1,0,0],[0,1,0],[0.25,1,0],[0.5,1,0],[0.75,1,0],[1,1,0],[0,0.25,0],[0,0.5,0],[0,0.75,0],[1,0.25,0],[1,0.5,0],[1,0.75,0]];outlineConnect=0;fontColor=#232F3E;fillColor=#7AA116;strokeColor=#ffffff;dashed=0;verticalLabelPosition=bottom;verticalAlign=top;align=center;html=1;fontSize=12;fontStyle=0;aspect=fixed;shape=mxgraph.aws4.resourceIcon;resIcon=mxgraph.aws4.s3;" vertex="1" parent="1">
          <mxGeometry x="510" y="329" width="60" height="60" as="geometry" />
        </mxCell>
        <mxCell id="EufZwtRnVpdwOE_JQvTh-34" style="edgeStyle=orthogonalEdgeStyle;rounded=0;orthogonalLoop=1;jettySize=auto;html=1;exitX=0.103;exitY=0.5;exitDx=0;exitDy=0;exitPerimeter=0;endArrow=none;endFill=0;" edge="1" parent="1" source="EufZwtRnVpdwOE_JQvTh-4">
          <mxGeometry relative="1" as="geometry">
            <mxPoint x="160" y="360" as="targetPoint" />
            <mxPoint x="289" y="165" as="sourcePoint" />
            <Array as="points">
              <mxPoint x="326" y="165" />
              <mxPoint x="160" y="165" />
            </Array>
          </mxGeometry>
        </mxCell>
        <mxCell id="EufZwtRnVpdwOE_JQvTh-4" value="" style="sketch=0;points=[[0,0,0],[0.25,0,0],[0.5,0,0],[0.75,0,0],[1,0,0],[0,1,0],[0.25,1,0],[0.5,1,0],[0.75,1,0],[1,1,0],[0,0.25,0],[0,0.5,0],[0,0.75,0],[1,0.25,0],[1,0.5,0],[1,0.75,0]];outlineConnect=0;fontColor=#232F3E;fillColor=#8C4FFF;strokeColor=#ffffff;dashed=0;verticalLabelPosition=bottom;verticalAlign=top;align=center;html=1;fontSize=12;fontStyle=0;aspect=fixed;shape=mxgraph.aws4.resourceIcon;resIcon=mxgraph.aws4.route_53;" vertex="1" parent="1">
          <mxGeometry x="320" y="134" width="56" height="56" as="geometry" />
        </mxCell>
        <mxCell id="EufZwtRnVpdwOE_JQvTh-6" value="" style="sketch=0;points=[[0,0,0],[0.25,0,0],[0.5,0,0],[0.75,0,0],[1,0,0],[0,1,0],[0.25,1,0],[0.5,1,0],[0.75,1,0],[1,1,0],[0,0.25,0],[0,0.5,0],[0,0.75,0],[1,0.25,0],[1,0.5,0],[1,0.75,0]];outlineConnect=0;fontColor=#232F3E;fillColor=#E7157B;strokeColor=#ffffff;dashed=0;verticalLabelPosition=bottom;verticalAlign=top;align=center;html=1;fontSize=12;fontStyle=0;aspect=fixed;shape=mxgraph.aws4.resourceIcon;resIcon=mxgraph.aws4.api_gateway;" vertex="1" parent="1">
          <mxGeometry x="712" y="329" width="60" height="60" as="geometry" />
        </mxCell>
        <mxCell id="EufZwtRnVpdwOE_JQvTh-22" style="edgeStyle=orthogonalEdgeStyle;rounded=0;orthogonalLoop=1;jettySize=auto;html=1;exitX=1;exitY=0.5;exitDx=0;exitDy=0;exitPerimeter=0;verticalAlign=middle;endArrow=none;endFill=0;" edge="1" parent="1" source="EufZwtRnVpdwOE_JQvTh-7" target="EufZwtRnVpdwOE_JQvTh-2">
          <mxGeometry relative="1" as="geometry" />
        </mxCell>
        <mxCell id="EufZwtRnVpdwOE_JQvTh-26" style="edgeStyle=orthogonalEdgeStyle;rounded=0;orthogonalLoop=1;jettySize=auto;html=1;exitX=0.5;exitY=0;exitDx=0;exitDy=0;exitPerimeter=0;endArrow=none;endFill=0;" edge="1" parent="1" source="EufZwtRnVpdwOE_JQvTh-7" target="EufZwtRnVpdwOE_JQvTh-12">
          <mxGeometry relative="1" as="geometry" />
        </mxCell>
        <mxCell id="EufZwtRnVpdwOE_JQvTh-7" value="" style="sketch=0;points=[[0,0,0],[0.25,0,0],[0.5,0,0],[0.75,0,0],[1,0,0],[0,1,0],[0.25,1,0],[0.5,1,0],[0.75,1,0],[1,1,0],[0,0.25,0],[0,0.5,0],[0,0.75,0],[1,0.25,0],[1,0.5,0],[1,0.75,0]];outlineConnect=0;fontColor=#232F3E;fillColor=#8C4FFF;strokeColor=#ffffff;dashed=0;verticalLabelPosition=bottom;verticalAlign=top;align=center;html=1;fontSize=12;fontStyle=0;aspect=fixed;shape=mxgraph.aws4.resourceIcon;resIcon=mxgraph.aws4.cloudfront;" vertex="1" parent="1">
          <mxGeometry x="318" y="329" width="60" height="60" as="geometry" />
        </mxCell>
        <mxCell id="EufZwtRnVpdwOE_JQvTh-8" value="" style="outlineConnect=0;dashed=0;verticalLabelPosition=bottom;verticalAlign=top;align=center;html=1;shape=mxgraph.aws3.dynamo_db;fillColor=#2E73B8;gradientColor=none;" vertex="1" parent="1">
          <mxGeometry x="570" y="98.5" width="60" height="61.5" as="geometry" />
        </mxCell>
        <mxCell id="EufZwtRnVpdwOE_JQvTh-9" value="DynamoDB" style="text;html=1;align=center;verticalAlign=middle;resizable=0;points=[];autosize=1;strokeColor=none;fillColor=none;" vertex="1" parent="1">
          <mxGeometry x="560" y="160" width="80" height="30" as="geometry" />
        </mxCell>
        <mxCell id="EufZwtRnVpdwOE_JQvTh-11" value="API Gateway" style="text;html=1;align=center;verticalAlign=middle;resizable=0;points=[];autosize=1;strokeColor=none;fillColor=none;" vertex="1" parent="1">
          <mxGeometry x="701.5" y="389" width="90" height="30" as="geometry" />
        </mxCell>
        <mxCell id="EufZwtRnVpdwOE_JQvTh-12" value="Route 53 (DNS)" style="text;html=1;align=center;verticalAlign=middle;resizable=0;points=[];autosize=1;strokeColor=none;fillColor=none;" vertex="1" parent="1">
          <mxGeometry x="293" y="190" width="110" height="30" as="geometry" />
        </mxCell>
        <mxCell id="EufZwtRnVpdwOE_JQvTh-13" value="S3 Bucket" style="text;html=1;align=center;verticalAlign=middle;resizable=0;points=[];autosize=1;strokeColor=none;fillColor=none;" vertex="1" parent="1">
          <mxGeometry x="497" y="389" width="80" height="30" as="geometry" />
        </mxCell>
        <mxCell id="EufZwtRnVpdwOE_JQvTh-14" value="CloudFront (CDN)" style="text;html=1;align=center;verticalAlign=middle;resizable=0;points=[];autosize=1;strokeColor=none;fillColor=none;" vertex="1" parent="1">
          <mxGeometry x="288" y="389" width="120" height="30" as="geometry" />
        </mxCell>
        <mxCell id="EufZwtRnVpdwOE_JQvTh-17" value="" style="outlineConnect=0;dashed=0;verticalLabelPosition=bottom;verticalAlign=top;align=center;html=1;shape=mxgraph.aws3.cloud_2;fillColor=#F58534;gradientColor=none;" vertex="1" parent="1">
          <mxGeometry x="180" y="50" width="70" height="70" as="geometry" />
        </mxCell>
        <mxCell id="EufZwtRnVpdwOE_JQvTh-18" value="" style="outlineConnect=0;dashed=0;verticalLabelPosition=bottom;verticalAlign=top;align=center;html=1;shape=mxgraph.aws3.virtual_private_cloud;fillColor=#F58534;gradientColor=none;" vertex="1" parent="1">
          <mxGeometry x="502" y="70" width="70" height="50" as="geometry" />
        </mxCell>
        <mxCell id="EufZwtRnVpdwOE_JQvTh-23" style="edgeStyle=orthogonalEdgeStyle;rounded=0;orthogonalLoop=1;jettySize=auto;html=1;exitX=1;exitY=0.5;exitDx=0;exitDy=0;exitPerimeter=0;entryX=0;entryY=0.5;entryDx=0;entryDy=0;entryPerimeter=0;endArrow=none;endFill=0;" edge="1" parent="1" source="EufZwtRnVpdwOE_JQvTh-2" target="EufZwtRnVpdwOE_JQvTh-6">
          <mxGeometry relative="1" as="geometry" />
        </mxCell>
        <mxCell id="EufZwtRnVpdwOE_JQvTh-27" value="" style="outlineConnect=0;dashed=0;verticalLabelPosition=bottom;verticalAlign=top;align=center;html=1;shape=mxgraph.aws3.lambda_function;fillColor=#5294CF;gradientColor=none;" vertex="1" parent="1">
          <mxGeometry x="716.5" y="175" width="51" height="50" as="geometry" />
        </mxCell>
        <mxCell id="EufZwtRnVpdwOE_JQvTh-29" value="Lambda&lt;br&gt;Function" style="text;html=1;align=center;verticalAlign=middle;resizable=0;points=[];autosize=1;strokeColor=none;fillColor=none;" vertex="1" parent="1">
          <mxGeometry x="707" y="220" width="70" height="40" as="geometry" />
        </mxCell>
        <mxCell id="EufZwtRnVpdwOE_JQvTh-32" value="" style="shape=actor;whiteSpace=wrap;html=1;" vertex="1" parent="1">
          <mxGeometry x="100" y="329" width="40" height="60" as="geometry" />
        </mxCell>
        <mxCell id="EufZwtRnVpdwOE_JQvTh-36" value="" style="sketch=0;points=[[0,0,0],[0.25,0,0],[0.5,0,0],[0.75,0,0],[1,0,0],[0,1,0],[0.25,1,0],[0.5,1,0],[0.75,1,0],[1,1,0],[0,0.25,0],[0,0.5,0],[0,0.75,0],[1,0.25,0],[1,0.5,0],[1,0.75,0]];outlineConnect=0;fontColor=#232F3E;fillColor=#DD344C;strokeColor=#ffffff;dashed=0;verticalLabelPosition=bottom;verticalAlign=top;align=center;html=1;fontSize=12;fontStyle=0;aspect=fixed;shape=mxgraph.aws4.resourceIcon;resIcon=mxgraph.aws4.certificate_manager_3;" vertex="1" parent="1">
          <mxGeometry x="198" y="390" width="60" height="60" as="geometry" />
        </mxCell>
        <mxCell id="EufZwtRnVpdwOE_JQvTh-37" style="edgeStyle=orthogonalEdgeStyle;rounded=0;orthogonalLoop=1;jettySize=auto;html=1;exitX=0;exitY=0.5;exitDx=0;exitDy=0;exitPerimeter=0;entryX=0.9;entryY=0.5;entryDx=0;entryDy=0;entryPerimeter=0;endArrow=none;endFill=0;" edge="1" parent="1" source="EufZwtRnVpdwOE_JQvTh-7" target="EufZwtRnVpdwOE_JQvTh-32">
          <mxGeometry relative="1" as="geometry" />
        </mxCell>
        <mxCell id="EufZwtRnVpdwOE_JQvTh-38" value="Certificate&lt;br&gt;Manager" style="text;html=1;align=center;verticalAlign=middle;resizable=0;points=[];autosize=1;strokeColor=none;fillColor=none;" vertex="1" parent="1">
          <mxGeometry x="188" y="450" width="80" height="40" as="geometry" />
        </mxCell>
        <mxCell id="EufZwtRnVpdwOE_JQvTh-39" value="Requests&lt;br&gt;gregchow.net" style="text;html=1;align=center;verticalAlign=middle;resizable=0;points=[];autosize=1;strokeColor=none;fillColor=none;" vertex="1" parent="1">
          <mxGeometry x="75" y="389" width="90" height="40" as="geometry" />
        </mxCell>
        <mxCell id="EufZwtRnVpdwOE_JQvTh-40" value="DNS hosted zone &lt;br&gt;returns IP Address(es)" style="text;html=1;align=center;verticalAlign=middle;resizable=0;points=[];autosize=1;strokeColor=none;fillColor=none;" vertex="1" parent="1">
          <mxGeometry x="178" y="124" width="140" height="40" as="geometry" />
        </mxCell>
        <mxCell id="EufZwtRnVpdwOE_JQvTh-41" value="A and AAAA records &lt;br&gt;point to Cloudfront" style="text;html=1;align=center;verticalAlign=middle;resizable=0;points=[];autosize=1;strokeColor=none;fillColor=none;" vertex="1" parent="1">
          <mxGeometry x="225" y="250" width="130" height="40" as="geometry" />
        </mxCell>
        <mxCell id="EufZwtRnVpdwOE_JQvTh-42" value="CloudFront&lt;br&gt;Delivers website" style="text;html=1;align=center;verticalAlign=middle;resizable=0;points=[];autosize=1;strokeColor=none;fillColor=none;" vertex="1" parent="1">
          <mxGeometry x="193" y="320" width="110" height="40" as="geometry" />
        </mxCell>
        <mxCell id="EufZwtRnVpdwOE_JQvTh-44" value="Certification Manager provides&lt;br&gt;Certificate for HTTPS" style="text;html=1;align=center;verticalAlign=middle;resizable=0;points=[];autosize=1;strokeColor=none;fillColor=none;" vertex="1" parent="1">
          <mxGeometry x="253" y="419" width="190" height="40" as="geometry" />
        </mxCell>
        <mxCell id="EufZwtRnVpdwOE_JQvTh-45" value="S3 provides &lt;br&gt;Website files to CDN" style="text;html=1;align=center;verticalAlign=middle;resizable=0;points=[];autosize=1;strokeColor=none;fillColor=none;" vertex="1" parent="1">
          <mxGeometry x="372" y="320" width="130" height="40" as="geometry" />
        </mxCell>
        <mxCell id="EufZwtRnVpdwOE_JQvTh-46" value="home.js makes&lt;br&gt;API call(s)" style="text;html=1;align=center;verticalAlign=middle;resizable=0;points=[];autosize=1;strokeColor=none;fillColor=none;" vertex="1" parent="1">
          <mxGeometry x="597" y="320" width="100" height="40" as="geometry" />
        </mxCell>
        <mxCell id="EufZwtRnVpdwOE_JQvTh-47" value="API Gateway Executes&lt;br&gt;Lambda Function(s)" style="text;html=1;align=center;verticalAlign=middle;resizable=0;points=[];autosize=1;strokeColor=none;fillColor=none;" vertex="1" parent="1">
          <mxGeometry x="597" y="260" width="150" height="40" as="geometry" />
        </mxCell>
        <mxCell id="EufZwtRnVpdwOE_JQvTh-52" style="edgeStyle=orthogonalEdgeStyle;rounded=0;orthogonalLoop=1;jettySize=auto;html=1;endArrow=none;endFill=0;" edge="1" parent="1">
          <mxGeometry relative="1" as="geometry">
            <mxPoint x="258" y="420" as="sourcePoint" />
            <mxPoint x="350" y="420" as="targetPoint" />
            <Array as="points">
              <mxPoint x="350" y="420" />
              <mxPoint x="350" y="409" />
            </Array>
          </mxGeometry>
        </mxCell>
        <mxCell id="EufZwtRnVpdwOE_JQvTh-53" style="edgeStyle=orthogonalEdgeStyle;rounded=0;orthogonalLoop=1;jettySize=auto;html=1;exitX=0.5;exitY=0;exitDx=0;exitDy=0;exitPerimeter=0;entryX=0.5;entryY=1.075;entryDx=0;entryDy=0;entryPerimeter=0;endArrow=none;endFill=0;" edge="1" parent="1" source="EufZwtRnVpdwOE_JQvTh-6" target="EufZwtRnVpdwOE_JQvTh-29">
          <mxGeometry relative="1" as="geometry" />
        </mxCell>
        <mxCell id="EufZwtRnVpdwOE_JQvTh-54" style="edgeStyle=orthogonalEdgeStyle;rounded=0;orthogonalLoop=1;jettySize=auto;html=1;exitX=0.5;exitY=0;exitDx=0;exitDy=0;exitPerimeter=0;entryX=1;entryY=0.5;entryDx=0;entryDy=0;entryPerimeter=0;endArrow=none;endFill=0;" edge="1" parent="1" source="EufZwtRnVpdwOE_JQvTh-27" target="EufZwtRnVpdwOE_JQvTh-8">
          <mxGeometry relative="1" as="geometry" />
        </mxCell>
        <mxCell id="EufZwtRnVpdwOE_JQvTh-55" value="DynamoDB provides Visitor Count&lt;br&gt;&amp;nbsp;and Last Time Accessed" style="text;html=1;align=center;verticalAlign=middle;resizable=0;points=[];autosize=1;strokeColor=none;fillColor=none;" vertex="1" parent="1">
          <mxGeometry x="597" y="75" width="210" height="40" as="geometry" />
        </mxCell>
      </root>
    </mxGraphModel>
  </diagram>
</mxfile>
